<svg width="327" height="130" viewBox="0 0 327 130" fill="none" xmlns="http://www.w3.org/2000/svg">
<path d="M3.6342 77.298C-4.47645 77.298 17.863 121.952 64.863 126.952C111.863 131.952 136.196 110.816 164.345 86.2219C179.726 70.77 181.783 43.4957 181.783 43.4957C181.405 17.3743 164.374 -4.83107 137.863 3.95246C111.352 12.736 108.976 27.6798 111.863 40.4525C114.75 53.2252 127.863 77.298 143.363 86.2219C158.863 95.1457 182.5 107.229 238 95.1831C293.5 83.1369 321 23.5 321 26.0432M321 26.0432L296.5 27.5M321 26.0432L325 45.5" stroke="#E56565" stroke-width="4"/>
</svg>
